<svg id="Capa_1" enable-background="new 0 0 513 513" height="512" viewBox="0 0 513 513" width="512" xmlns="http://www.w3.org/2000/svg"><g><g><path d="m470.832 285.338-164.686 164.675c-12.661 12.651-28.948 19.471-45.514 20.429-5.512.33-11.064.01-16.514-.968-13.65-2.431-26.713-8.921-37.262-19.46l-164.685-164.676c-27.784-27.784-41.671-64.201-41.671-100.618s13.887-72.834 41.671-100.618c55.568-55.558 145.668-55.558 201.226 0l12.115 12.115.989.989 11.353-11.353 1.751-1.751c55.558-55.558 145.658-55.558 201.226 0 55.558 55.568 55.558 145.668.001 201.236z" fill="#fd4755" stroke="#fe646f" stroke-miterlimit="10"/><path d="m265.13 470.03c-20.737 2.566-42.376-4.119-58.281-20.024l-164.674-164.673c-27.786-27.786-41.663-64.206-41.663-100.61 0-36.42 13.877-72.84 41.663-100.61 36.737-36.737 88.539-49.188 135.493-37.354-4.436 2.17-8.808 4.578-13.085 7.255-43.2 26.994-66.915 73.378-66.915 120.824 0 25.743 6.986 51.802 21.624 75.248l123.39 197.513c5.878 9.409 13.624 16.95 22.448 22.431z" fill="#fb2b3a"/></g><path d="m288.602 408.6-27.969 61.842c-5.512.33-11.064.01-16.514-.968l27.485-60.791-59.957-33.759c-1.937-1.092-3.317-2.967-3.77-5.151-.453-2.174.051-4.45 1.38-6.222l45.205-60.163c2.565-3.41 7.407-4.1 10.817-1.535s4.1 7.407 1.535 10.817l-39.899 53.106 58.432 32.914c3.492 1.957 4.903 6.263 3.255 9.91z" fill="#fb2b3a"/><path d="m292.084 159.758-77.079 39.827c-1.133.587-2.349.865-3.533.865-2.802 0-5.501-1.525-6.871-4.183-1.968-3.791-.474-8.448 3.317-10.415l70.66-36.51-23.066-53.127.989.989 11.353-11.353 27.774 63.964c1.617 3.731.072 8.079-3.544 9.943z" fill="#fb2b3a"/><g><path d="m305.077 336.02-162.328-42.42c-35.996-9.407-57.551-46.213-48.145-82.209 9.407-35.996 46.213-57.551 82.209-48.145l162.328 42.42c35.996 9.407 57.551 46.213 48.145 82.209-9.406 35.997-46.212 57.552-82.209 48.145z" fill="#ffdfcf"/><path d="m286.779 306.196-113.48-29.655c-9.262-2.42-14.808-11.891-12.388-21.152l13.048-49.932c2.42-9.262 11.891-14.808 21.152-12.388l113.48 29.655c9.262 2.42 14.808 11.891 12.388 21.152l-13.048 49.932c-2.42 9.262-11.89 14.809-21.152 12.388z" fill="#f9f7f8"/></g></g></svg>